<svg width="70" height="71" viewBox="0 0 70 71" fill="none" xmlns="http://www.w3.org/2000/svg">
<g clip-path="url(#clip0_204_365)">
<path fill-rule="evenodd" clip-rule="evenodd" d="M15.9634 11C6.34558 11 0 19.0869 0 29.0625C0 39.0381 6.34558 70.5 15.9634 70.5C21.5741 70.5 22.2114 44.3729 29.75 44.3493C38.7398 44.3729 37.9259 70.5 43.5366 70.5C53.1544 70.5 59.5 39.0381 59.5 29.0625C59.5 19.0869 53.1544 11 43.5366 11C38.9411 11 34.3455 14.1875 29.75 14.1875C25.1545 14.1875 20.5589 11 15.9634 11Z" fill="#5686E5"/>
<g clip-path="url(#clip1_204_365)">
<path d="M59.9621 2.75202C58.4891 1.94384 56.7981 1.48381 54.9996 1.48381C53.2008 1.48381 51.5099 1.94384 50.037 2.75202C49.3836 1.30154 47.9254 0.291809 46.2313 0.291809C43.9273 0.291809 42.0596 2.15975 42.0596 4.46369C42.0596 6.41514 43.3994 8.05339 45.2093 8.50916C44.859 9.54694 44.6691 10.6585 44.6691 11.8141C44.6691 14.0262 45.3645 16.0757 46.5483 17.7564C46.5487 17.7569 46.5495 17.7575 46.55 17.758C47.3759 18.9306 48.4399 19.9234 49.6717 20.6662C51.227 21.6047 53.0502 22.1446 54.9997 22.1446C56.9487 22.1446 58.772 21.6047 60.3277 20.6662C61.5594 19.9235 62.6234 18.9309 63.4492 17.758C63.45 17.7575 63.4507 17.7566 63.4511 17.7561C64.635 16.0756 65.33 14.0261 65.33 11.8141C65.33 10.6585 65.1401 9.54702 64.7899 8.50916C66.5998 8.05339 67.9397 6.41505 67.9397 4.46369C67.9396 2.15975 66.0719 0.291809 63.7677 0.291809C62.0738 0.291809 60.6154 1.30154 59.9621 2.75202Z" fill="#7BA9D6"/>
<path d="M49.6712 20.6662C48.4394 19.9235 47.3753 18.9307 46.5495 17.758C46.5488 17.7576 46.5483 17.7569 46.5479 17.7564C45.8825 17.097 44.9669 16.6898 43.9565 16.6898C41.923 16.6898 40.2744 18.3383 40.2744 20.3717C40.2744 22.4053 41.923 24.0537 43.9565 24.0537C44.0478 24.0537 44.1382 24.0503 44.2278 24.0437C44.0904 24.8376 44.018 25.6584 44.018 26.4983C44.018 28.101 44.2807 29.6334 44.7582 31.0427C47.1106 31.3356 48.931 33.3422 48.931 35.7738C48.931 36.1534 48.8867 36.5226 48.8027 36.8766C50.5663 38.2591 52.7 39.0681 54.9992 39.0681C57.2981 39.0681 59.4319 38.2589 61.1957 36.8766C61.6932 38.9781 63.5816 40.542 65.8351 40.542C68.4685 40.542 70.6032 38.4071 70.6032 35.7739C70.6032 33.1409 68.4685 31.006 65.8351 31.006C65.6336 31.006 65.4351 31.0187 65.24 31.0428C65.7178 29.6334 65.9802 28.1011 65.9802 26.4984C65.9802 25.6585 65.9076 24.8378 65.7703 24.0438C65.86 24.0504 65.9505 24.0538 66.0418 24.0538C68.0752 24.0538 69.7238 22.4054 69.7238 20.3718C69.7238 18.3384 68.0752 16.6898 66.0418 16.6898C65.0313 16.6898 64.1159 17.0969 63.4508 17.7562C62.6245 18.9295 61.5597 19.923 60.3273 20.6662C60.7092 21.7454 60.9237 22.9581 60.9237 24.2398C60.9237 28.7481 58.2712 32.4029 54.9993 32.4029C51.7271 32.4029 49.0744 28.7482 49.0744 24.2398C49.0743 22.958 49.2889 21.7454 49.6712 20.6662Z" fill="#7BA9D6"/>
<path d="M49.6711 20.6661C49.2889 21.7453 49.0742 22.958 49.0742 24.2397C49.0742 28.748 51.7269 32.4028 54.9991 32.4028C58.2711 32.4028 60.9235 28.7481 60.9235 24.2397C60.9235 22.9579 60.709 21.7453 60.3271 20.6661C59.048 21.4373 57.6397 21.9071 56.2032 22.0751C55.8033 22.122 55.4011 22.1452 54.9991 22.1445C54.5896 22.1452 54.1802 22.1211 53.773 22.0724C52.2858 21.8968 50.8955 21.4051 49.6711 20.6661Z" fill="#38BF8E"/>
<path d="M44.1633 40.5417C46.7893 40.5417 48.9313 38.3999 48.9313 35.7739C48.9313 33.1478 46.7893 31.0059 44.1633 31.0059C41.5372 31.0059 39.3955 33.1478 39.3955 35.7739C39.3956 38.3999 41.5373 40.5417 44.1633 40.5417Z" fill="#7BA9D6"/>
<path d="M66.4107 30.1599C66.7062 28.9738 66.8556 27.7468 66.8556 26.4982C66.8556 25.955 66.8267 25.4106 66.7691 24.8708C68.9375 24.5217 70.5992 22.6371 70.5992 20.3717C70.5992 17.859 68.555 15.8147 66.0422 15.8147C65.8429 15.8147 65.6458 15.8287 65.4512 15.8537C65.9375 14.5999 66.2049 13.2377 66.2049 11.8142C66.2049 10.8786 66.09 9.95461 65.8629 9.05726C67.6375 8.25065 68.8147 6.47138 68.8147 4.46374C68.8148 1.68074 66.5508 -0.583252 63.7678 -0.583252C62.0929 -0.583252 60.5429 0.250763 59.6115 1.60002C58.1695 0.94959 56.5915 0.608749 54.9997 0.608749C53.4077 0.608749 51.8295 0.94959 50.3875 1.60002C49.4561 0.250763 47.9062 -0.583252 46.2313 -0.583252C43.4485 -0.583252 41.1846 1.68074 41.1846 4.46374C41.1846 6.47138 42.3615 8.25065 44.1361 9.05726C43.9089 9.95436 43.7941 10.8784 43.7941 11.8142C43.7941 13.2378 44.0616 14.5999 44.5478 15.8537C44.3533 15.8286 44.1562 15.8147 43.9569 15.8147C41.4441 15.8147 39.3998 17.859 39.3998 20.3717C39.3998 22.637 41.0614 24.5217 43.2299 24.8708C43.1725 25.4103 43.1435 25.9546 43.1435 26.4982C43.1435 27.7471 43.2929 28.974 43.5884 30.1599C43.5884 30.1599 43.5882 30.1599 43.588 30.1599C43.5832 30.1604 43.5785 30.1612 43.5737 30.1617C43.4865 30.1708 43.4001 30.1817 43.314 30.1947C43.2844 30.1992 43.2554 30.2051 43.2261 30.2101C43.1654 30.2203 43.1044 30.2305 43.0443 30.2427C43.0097 30.2496 42.9756 30.258 42.9412 30.2657C42.887 30.2777 42.8327 30.2896 42.779 30.3033C42.7428 30.3124 42.7072 30.3228 42.6714 30.3326C42.6202 30.3467 42.5691 30.3606 42.5185 30.3761C42.4819 30.3872 42.4459 30.3994 42.4097 30.4113C42.3607 30.4274 42.3117 30.4436 42.2631 30.461C42.2267 30.4741 42.1908 30.488 42.1548 30.5017C42.1073 30.5198 42.06 30.5383 42.0132 30.5577C41.9774 30.5724 41.942 30.5879 41.9064 30.6034C41.8603 30.6236 41.8143 30.6443 41.7689 30.6658C41.7338 30.6823 41.6991 30.6991 41.6644 30.7164C41.6195 30.7387 41.575 30.7615 41.5307 30.785C41.4966 30.803 41.4628 30.8212 41.4292 30.8399C41.3853 30.8644 41.3418 30.8896 41.2986 30.9151C41.2658 30.9345 41.2331 30.9539 41.2006 30.974C41.1576 31.0006 41.1151 31.0282 41.0728 31.0561C41.0416 31.0767 41.0102 31.097 40.9794 31.1182C40.937 31.1474 40.8952 31.1775 40.8536 31.2078C40.8241 31.2292 40.7945 31.2504 40.7655 31.2723C40.7232 31.3042 40.6819 31.3374 40.6405 31.3705C40.6133 31.3923 40.5858 31.4137 40.559 31.436C40.5161 31.4718 40.4742 31.5087 40.4323 31.5458C40.4085 31.5669 40.3841 31.5874 40.3606 31.6088C40.3139 31.6516 40.2684 31.6957 40.2231 31.74C40.2058 31.757 40.1878 31.7732 40.1706 31.7905C40.0463 31.9151 39.9278 32.0454 39.8155 32.1811C39.799 32.2008 39.7837 32.2214 39.7676 32.2413C39.7288 32.2897 39.69 32.338 39.6526 32.3877C39.6329 32.4139 39.6143 32.4407 39.595 32.4673C39.5627 32.5119 39.5304 32.5564 39.4993 32.602C39.4792 32.6314 39.46 32.6618 39.4403 32.6916C39.4118 32.7353 39.3832 32.779 39.3557 32.8234C39.336 32.8553 39.3174 32.8878 39.2984 32.92C39.2726 32.9637 39.247 33.0076 39.2224 33.0521C39.2037 33.0858 39.1859 33.1198 39.1681 33.1539C39.1448 33.1981 39.1218 33.2423 39.0997 33.2872C39.0824 33.3224 39.0657 33.3579 39.049 33.3934C39.0281 33.4383 39.0075 33.4833 38.9878 33.5288C38.9718 33.5651 38.9565 33.6018 38.9415 33.6385C38.9227 33.6842 38.9046 33.7302 38.8869 33.7766C38.8728 33.814 38.859 33.8513 38.8454 33.8891C38.8288 33.9359 38.813 33.983 38.7975 34.0303C38.7851 34.0684 38.7728 34.1065 38.7612 34.1449C38.7468 34.1929 38.7333 34.2412 38.72 34.2896C38.7095 34.3282 38.6989 34.3667 38.6891 34.4056C38.6767 34.455 38.6655 34.5049 38.6545 34.5548C38.6459 34.5934 38.6372 34.6322 38.6293 34.6712C38.6191 34.7226 38.6103 34.7747 38.6016 34.8265C38.5952 34.8646 38.5881 34.9026 38.5823 34.941C38.5742 34.9957 38.5678 35.0509 38.5613 35.1061C38.557 35.1425 38.5519 35.1785 38.5483 35.215C38.5422 35.2763 38.5382 35.338 38.5342 35.3998C38.5322 35.4309 38.529 35.4617 38.5276 35.4929C38.5229 35.5861 38.5205 35.6799 38.5205 35.774C38.5205 35.9685 38.5303 36.1607 38.5496 36.3501C38.8392 39.1921 41.2463 41.417 44.1634 41.417H44.1635C44.1637 41.417 44.164 41.417 44.164 41.417C44.2514 41.417 44.3384 41.4143 44.4248 41.4103C44.4461 41.4094 44.4672 41.4081 44.4886 41.407C44.5677 41.4026 44.6468 41.3966 44.7251 41.3889C44.7316 41.3883 44.7381 41.3878 44.7447 41.3871C46.7041 41.1882 48.3924 39.993 49.237 38.2525C50.9925 39.362 52.9632 39.9431 54.9997 39.9431C57.0358 39.9431 59.0065 39.3619 60.7622 38.2525C61.6893 40.163 63.6325 41.417 65.8356 41.417C68.9472 41.417 71.4786 38.8856 71.4786 35.774C71.4786 32.8563 69.2531 30.4488 66.4107 30.1599ZM42.9346 4.46374C42.9346 2.64584 44.4135 1.16689 46.2313 1.16689C47.5265 1.16689 48.7071 1.9302 49.2392 3.11145C49.3394 3.334 49.5279 3.50454 49.7593 3.58198C49.9909 3.65942 50.2441 3.6367 50.458 3.51931C51.8414 2.76019 53.4119 2.35897 54.9997 2.35897C56.5874 2.35897 58.1577 2.76019 59.5411 3.51931C59.7551 3.63662 60.0083 3.6595 60.2397 3.58198C60.4711 3.50454 60.6597 3.334 60.7599 3.11153C61.2921 1.9302 62.4727 1.16689 63.7679 1.16689C65.5858 1.16689 67.0648 2.64584 67.0648 4.46374C67.0648 5.97714 66.0415 7.2917 64.5763 7.66067C64.3396 7.72023 64.1386 7.87601 64.0217 8.09027C63.9048 8.30454 63.8827 8.55785 63.9608 8.7891C64.2887 9.76093 64.455 10.7787 64.455 11.8143C64.455 17.028 60.2133 21.2696 54.9997 21.2696C49.786 21.2696 45.5442 17.028 45.5442 11.8143C45.5442 10.7934 45.7065 9.7903 46.025 8.83159C46.0305 8.81789 46.0361 8.80428 46.0409 8.79008C46.2434 8.19035 46.5074 7.60883 46.8254 7.06184C47.0682 6.64397 46.9264 6.10839 46.5087 5.86558C46.0908 5.62276 45.5553 5.76451 45.3124 6.18238C45.0866 6.57088 44.8843 6.97423 44.7063 7.38792C43.6351 6.83068 42.9346 5.71546 42.9346 4.46374ZM60.0492 24.2397C60.0492 26.237 59.4922 28.1043 58.4808 29.498C57.5308 30.8069 56.2945 31.5278 54.9997 31.5278C53.7048 31.5278 52.4684 30.8069 51.5183 29.498C50.5069 28.1044 49.9499 26.237 49.9499 24.2398C49.9499 23.4477 50.0388 22.6795 50.2107 21.9434C51.6637 22.6332 53.2873 23.0198 54.9997 23.0198C56.7121 23.0198 58.3356 22.6332 59.7885 21.9434C59.9603 22.6794 60.0492 23.4476 60.0492 24.2397ZM47.9372 36.7304C47.9345 36.7412 47.9317 36.7519 47.9289 36.7627C47.5401 38.2423 46.3003 39.3806 44.7663 39.62C44.7579 39.6213 44.7494 39.6226 44.741 39.6238C44.6904 39.6313 44.6397 39.6376 44.5885 39.6432C44.5729 39.6449 44.5574 39.6467 44.5416 39.6482C44.4954 39.6527 44.4486 39.656 44.4018 39.6589C44.3849 39.66 44.3679 39.6614 44.351 39.6621C44.2891 39.665 44.227 39.6668 44.1644 39.6668C44.1641 39.6668 44.1639 39.6668 44.1635 39.6668C42.2852 39.6668 40.7133 38.3297 40.3496 36.5575C40.2977 36.3044 40.2706 36.0423 40.2706 35.774C40.2706 35.5058 40.2979 35.2437 40.3496 34.9904C40.7133 33.2182 42.2852 31.8811 44.1635 31.881C44.2383 31.881 44.3137 31.8837 44.389 31.888C44.4118 31.8893 44.4344 31.8915 44.4571 31.8932C44.5086 31.8971 44.5599 31.9017 44.6112 31.9076C46.5475 32.1304 48.0564 33.7789 48.0564 35.774C48.0564 36.1039 48.0148 36.4242 47.9372 36.7304ZM65.8356 39.6668C64.0224 39.6668 62.4649 38.4365 62.0476 36.6747C62.038 36.6337 62.0247 36.5942 62.0094 36.5556C61.9566 36.2984 61.9283 36.0362 61.9283 35.7739C61.9283 35.3485 61.9975 34.9284 62.134 34.5254C62.2889 34.0676 62.0436 33.5708 61.5858 33.4159C61.1282 33.2609 60.6313 33.5063 60.4763 33.964C60.2784 34.5483 60.1782 35.1572 60.1782 35.7739C60.1782 36.0179 60.1956 36.2618 60.2272 36.5039C58.652 37.6097 56.8557 38.193 54.9995 38.193C53.1378 38.193 51.3367 37.6066 49.7588 36.495C49.789 36.2587 49.8063 36.0184 49.8063 35.774C49.8063 33.0992 47.9352 30.8549 45.4337 30.2768C45.0752 29.0638 44.8933 27.7952 44.8933 26.4982C44.8933 25.7241 44.9597 24.9484 45.0903 24.193C45.1363 23.9275 45.0574 23.6557 44.8766 23.4561C44.6956 23.2565 44.4324 23.1514 44.1642 23.1711C44.0953 23.1762 44.0254 23.1787 43.9567 23.1787C42.409 23.1787 41.1498 21.9196 41.1498 20.3719C41.1498 18.8242 42.4091 17.565 43.9567 17.565C44.6885 17.565 45.3782 17.8444 45.9041 18.3516C46.6551 19.3934 47.5803 20.3014 48.6369 21.033C48.3467 22.0537 48.1996 23.1294 48.1996 24.2399C48.1996 26.6035 48.8752 28.836 50.1018 30.526C51.3899 32.3006 53.1293 33.278 54.9996 33.278C56.8697 33.278 58.609 32.3007 59.8971 30.526C61.1237 28.8359 61.7992 26.6035 61.7992 24.2399C61.7992 23.1293 61.6522 22.0537 61.362 21.033C62.4186 20.3015 63.3438 19.3936 64.0948 18.3517C64.6206 17.8445 65.3102 17.565 66.0421 17.565C67.5899 17.565 68.849 18.8242 68.849 20.3719C68.849 21.9196 67.5898 23.1787 66.0421 23.1787C65.9731 23.1787 65.9034 23.1762 65.8347 23.1711C65.5664 23.1513 65.3033 23.2565 65.1224 23.456C64.9414 23.6556 64.8624 23.9274 64.9084 24.1928C65.0392 24.9493 65.1055 25.7249 65.1055 26.4982C65.1055 27.9687 64.872 29.4031 64.4116 30.7619C64.3148 31.0472 64.3718 31.3621 64.5621 31.5956C64.7524 31.8291 65.0492 31.9483 65.3484 31.9112C65.5096 31.8912 65.6735 31.881 65.8356 31.881C67.9822 31.881 69.7284 33.6274 69.7284 35.774C69.7285 37.9205 67.9822 39.6668 65.8356 39.6668Z" fill="#F7F3ED"/>
<path d="M51.3877 11.3688C52.1106 11.3688 52.7002 10.7791 52.7002 10.0562C52.7002 9.33348 52.1106 8.74384 51.3877 8.74384C50.6648 8.74384 50.0752 9.33348 50.0752 10.0562C50.0752 10.7791 50.6648 11.3688 51.3877 11.3688Z" fill="#F7F3ED"/>
<path d="M58.6114 11.3688C59.3344 11.3688 59.924 10.7791 59.924 10.0562C59.924 9.33348 59.3344 8.74384 58.6114 8.74384C57.8885 8.74384 57.2988 9.33348 57.2988 10.0562C57.2988 10.7791 57.8884 11.3688 58.6114 11.3688Z" fill="#F7F3ED"/>
<path d="M55.0001 14.7499C55.723 14.7499 56.3126 14.1605 56.3126 13.4375C56.3126 12.7146 55.723 12.1249 55.0001 12.1249C54.2771 12.1249 53.6875 12.7146 53.6875 13.4375C53.6875 14.1605 54.2771 14.7499 55.0001 14.7499Z" fill="#F7F3ED"/>
<path d="M62.2083 31.439L62.1925 31.4523C61.8187 31.7587 61.764 32.31 62.0704 32.6838C62.2434 32.8948 62.4945 33.0041 62.7476 33.0041C62.9427 33.0041 63.1391 32.9391 63.3018 32.8058L63.3323 32.7803C63.7026 32.4698 63.7514 31.9179 63.4409 31.5476C63.1306 31.1774 62.5786 31.1285 62.2083 31.439Z" fill="#F7F3ED"/>
<path d="M47.5253 5.5579C47.7559 5.5579 47.9861 5.46734 48.1579 5.2876L48.1722 5.27235C48.5043 4.92117 48.4888 4.36737 48.1377 4.03531C47.7865 3.70333 47.2326 3.71875 46.9006 4.06985C46.8997 4.07091 46.8933 4.07756 46.891 4.08018C46.559 4.42955 46.5721 4.98204 46.9208 5.31533C47.0903 5.47734 47.3079 5.5579 47.5253 5.5579Z" fill="#F7F3ED"/>
</g>
</g>
<defs>
<clipPath id="clip0_204_365">
<rect width="70" height="70" fill="white" transform="translate(0 0.416748)"/>
</clipPath>
<clipPath id="clip1_204_365">
<rect width="42" height="42" fill="white" transform="translate(34 -0.583252)"/>
</clipPath>
</defs>
</svg>
