<svg width="70" height="71" viewBox="0 0 70 71" fill="none" xmlns="http://www.w3.org/2000/svg">
<g clip-path="url(#clip0_204_659)">
<g clip-path="url(#clip1_204_659)">
<path d="M36.104 48.3218C35.8741 48.3218 35.6389 48.3735 35.4051 48.4759L25.2438 52.9223C24.3596 53.3091 23.667 54.3682 23.667 55.3334V57.8099C23.667 58.6937 24.2548 59.3353 25.0647 59.3353C25.2945 59.3353 25.5299 59.2836 25.7638 59.1811L35.925 54.7347C36.8092 54.3479 37.5018 53.2887 37.5018 52.3236V49.8471C37.5017 48.9633 36.9139 48.3218 36.104 48.3218Z" fill="#38BF8E"/>
<path d="M36.104 39.217C35.8741 39.217 35.6389 39.2688 35.4051 39.3711L25.2438 43.8176C24.3596 44.2044 23.667 45.2635 23.667 46.2286V48.7052C23.667 49.5891 24.2548 50.2306 25.0647 50.2306C25.2945 50.2306 25.5299 50.1787 25.7638 50.0764L35.925 45.6299C36.8092 45.243 37.5018 44.184 37.5018 43.2189V40.7423C37.5017 39.8586 36.9139 39.217 36.104 39.217Z" fill="#38BF8E"/>
<path d="M36.104 57.4265C35.8741 57.4265 35.6389 57.4783 35.4051 57.5807L25.2438 62.0272C24.459 62.3706 23.667 63.035 23.667 63.7448C23.667 64.3419 24.2346 65.1915 24.7619 65.7281L29.2127 70.258C29.5774 70.629 30.0646 70.8335 30.5843 70.8335C31.104 70.8335 31.5912 70.629 31.9559 70.2578L36.4066 65.7282C37.0309 65.093 37.5016 63.9421 37.5016 63.0514V58.9518C37.5017 58.068 36.9139 57.4265 36.104 57.4265Z" fill="#38BF8E"/>
<path d="M36.104 30.1121C35.8741 30.1121 35.6389 30.1638 35.4051 30.2661L25.2438 34.7126C24.3596 35.0994 23.667 36.1585 23.667 37.1236V39.6002C23.667 40.484 24.2548 41.1256 25.0647 41.1256C25.2945 41.1256 25.5299 41.0739 25.7638 40.9714L35.925 36.5249C36.8092 36.1382 37.5018 35.079 37.5018 34.1139V31.6374C37.5017 30.7536 36.9139 30.1121 36.104 30.1121Z" fill="#38BF8E"/>
</g>
<path fill-rule="evenodd" clip-rule="evenodd" d="M16.9633 10.8335C7.34554 10.8335 1 18.9204 1 28.896C1 38.8716 7.34554 70.3335 16.9633 70.3335C22.574 70.3335 23.2113 44.2064 30.7498 44.1828C39.7396 44.2064 38.9257 70.3335 44.5363 70.3335C54.1541 70.3335 60.4997 38.8716 60.4997 28.896C60.4997 18.9204 54.1541 10.8335 44.5363 10.8335C39.9408 10.8335 35.3453 14.021 30.7498 14.021C26.1543 14.021 21.5588 10.8335 16.9633 10.8335Z" fill="#5686E5"/>
</g>
<defs>
<clipPath id="clip0_204_659">
<rect width="70" height="70" fill="white" transform="translate(0 0.833496)"/>
</clipPath>
<clipPath id="clip1_204_659">
<rect width="41" height="41" fill="white" transform="translate(10 29.8335)"/>
</clipPath>
</defs>
</svg>
