<svg width="70" height="71" viewBox="0 0 70 71" fill="none" xmlns="http://www.w3.org/2000/svg">
<g clip-path="url(#clip0_212_859)">
<path fill-rule="evenodd" clip-rule="evenodd" d="M16.9633 10.8335C7.34554 10.8335 1 18.9204 1 28.896C1 38.8716 7.34554 70.3335 16.9633 70.3335C22.574 70.3335 23.2113 44.2064 30.7498 44.1828C39.7396 44.2064 38.9257 70.3335 44.5363 70.3335C54.1541 70.3335 60.4997 38.8716 60.4997 28.896C60.4997 18.9204 54.1541 10.8335 44.5363 10.8335C39.9408 10.8335 35.3453 14.021 30.7498 14.021C26.1543 14.021 21.5588 10.8335 16.9633 10.8335Z" fill="#5686E5"/>
<g clip-path="url(#clip1_212_859)">
<circle cx="52" cy="19.8335" r="13" fill="#F7F3ED"/>
<path d="M67.6544 20.0383C67.4804 19.5847 67.4804 19.0826 67.6544 18.6275L69.0613 14.9342C69.3937 14.0623 69.073 13.0794 68.2931 12.5701L64.9836 10.409C64.5764 10.143 64.2812 9.73574 64.1546 9.26717L63.1215 5.45161C62.8783 4.55241 62.0404 3.94379 61.1105 3.99011L57.1622 4.18754C56.6769 4.21096 56.1993 4.05645 55.8207 3.75135L52.7426 1.27235C52.0174 0.687212 50.9821 0.687212 50.2563 1.27235L47.1783 3.75135C46.7995 4.05645 46.3221 4.21096 45.8362 4.18754L41.8884 3.99011C40.9584 3.94386 40.1206 4.55241 39.8774 5.45161L38.8449 9.26717C38.7177 9.73574 38.4226 10.143 38.0154 10.409L34.7058 12.57C33.926 13.0793 33.6058 14.0633 33.9377 14.9341L35.3451 18.628C35.5186 19.0826 35.5186 19.5847 35.3451 20.0387L33.9377 23.7326C33.6058 24.6029 33.926 25.5874 34.7058 26.0967L38.0154 28.2584C38.4226 28.5233 38.7177 28.9294 38.8449 29.3991L39.8774 33.2146C40.1207 34.1144 40.9585 34.7224 41.8884 34.6761L45.8362 34.4798C46.3221 34.4546 46.7995 34.6103 47.1783 34.9149L50.2563 37.395C50.9821 37.9796 52.0174 37.9796 52.742 37.395L55.8207 34.9149C56.1989 34.6104 56.6769 34.4547 57.1622 34.4798L61.1105 34.6761C62.0404 34.7224 62.8783 34.1144 63.1215 33.2146L64.1546 29.3991C64.2812 28.9294 64.5764 28.5233 64.9836 28.2584L68.2931 26.0967C69.073 25.5874 69.3937 24.6029 69.0607 23.7326L67.6544 20.0383ZM53.8683 27.5087C53.8683 28.2639 53.2558 28.8776 52.5006 28.8776H50.4985C49.7432 28.8776 49.1302 28.2639 49.1302 27.5087V25.419C49.1302 24.6637 49.7432 24.0501 50.4985 24.0501H52.5006C53.2558 24.0501 53.8683 24.6637 53.8683 25.419V27.5087ZM53.8683 20.2692C53.8683 21.0245 53.2558 21.637 52.5006 21.637H50.4985C49.7432 21.637 49.1302 21.0245 49.1302 20.2692V11.1587C49.1302 10.4023 49.7432 9.78979 50.4985 9.78979H52.5006C53.2558 9.78979 53.8683 10.4023 53.8683 11.1587V20.2692Z" fill="#E6494C"/>
</g>
</g>
<defs>
<clipPath id="clip0_212_859">
<rect width="70" height="70" fill="white" transform="translate(0 0.833496)"/>
</clipPath>
<clipPath id="clip1_212_859">
<rect width="37" height="37" fill="white" transform="translate(33 0.833496)"/>
</clipPath>
</defs>
</svg>
