<svg width="70" height="71" viewBox="0 0 70 71" fill="none" xmlns="http://www.w3.org/2000/svg">
<g clip-path="url(#clip0_210_699)">
<path fill-rule="evenodd" clip-rule="evenodd" d="M16.9633 10.8335C7.34554 10.8335 1 18.9204 1 28.896C1 38.8716 7.34554 70.3335 16.9633 70.3335C22.574 70.3335 23.2113 44.2064 30.7498 44.1828C39.7396 44.2064 38.9257 70.3335 44.5363 70.3335C54.1541 70.3335 60.4997 38.8716 60.4997 28.896C60.4997 18.9204 54.1541 10.8335 44.5363 10.8335C39.9408 10.8335 35.3453 14.021 30.7498 14.021C26.1543 14.021 21.5588 10.8335 16.9633 10.8335Z" fill="#5686E5"/>
<path d="M20.7159 17.043C19.0253 17.0441 17.6554 15.6746 17.6568 13.9839L17.6609 8.29255C16.836 7.74635 16.2885 6.81136 16.2895 5.7431L16.2902 5.74379C16.2916 4.05428 17.6619 2.68406 19.3514 2.68265L39.9541 2.66608C40.1234 2.66584 40.2924 2.67866 40.4582 2.70613L48.4463 4.03195L64.678 4.01814C65.5227 4.01751 66.2896 4.3605 66.8421 4.91307C67.3948 5.46571 67.7377 6.23237 67.7371 7.07721C67.7357 8.7666 66.3657 10.1371 64.6766 10.139L48.1936 10.1528C48.0251 10.153 47.8564 10.1396 47.6902 10.1121L39.7014 8.78697L36.1438 8.78973L36.1396 13.9715C36.139 14.7831 35.8159 15.5617 35.2419 16.1356C34.6681 16.7094 33.8894 17.0326 33.0778 17.0333L20.7159 17.043Z" fill="#38BF8E" stroke="#F7F3ED" stroke-width="2"/>
</g>
<defs>
<clipPath id="clip0_210_699">
<rect width="70" height="70" fill="white" transform="translate(0 0.833496)"/>
</clipPath>
</defs>
</svg>
