<svg width="112" height="71" viewBox="0 0 112 71" fill="none" xmlns="http://www.w3.org/2000/svg">
<path fill-rule="evenodd" clip-rule="evenodd" d="M35.5226 55.0386C30.9903 55.0386 28 51.2277 28 46.5268C28 41.8258 30.9903 26.9997 35.5226 26.9997C38.1666 26.9997 38.4669 39.3119 42.0194 39.323C46.2558 39.3119 45.8722 26.9997 48.5162 26.9997C53.0486 26.9997 56.0389 41.8258 56.0389 46.5268C56.0389 51.2277 53.0486 55.0386 48.5162 55.0386C46.3506 55.0386 44.185 53.5365 42.0194 53.5365C39.8538 53.5365 37.6882 55.0386 35.5226 55.0386Z" fill="#5686E5"/>
<path fill-rule="evenodd" clip-rule="evenodd" d="M63.5226 55.0385C58.9903 55.0385 56 51.2276 56 46.5267C56 41.8257 58.9903 26.9996 63.5226 26.9996C66.1666 26.9996 66.4669 39.3118 70.0194 39.3229C74.2558 39.3118 73.8722 26.9996 76.5162 26.9996C81.0486 26.9996 84.0388 41.8257 84.0388 46.5267C84.0388 51.2276 81.0486 55.0385 76.5162 55.0385C74.3506 55.0385 72.185 53.5364 70.0194 53.5364C67.8538 53.5364 65.6882 55.0385 63.5226 55.0385Z" fill="#5686E5"/>
<path fill-rule="evenodd" clip-rule="evenodd" d="M10.439 50.9998C6.55956 50.9998 4 47.7378 4 43.714C4 39.6903 6.55956 26.9998 10.439 26.9998C12.7022 26.9998 12.9592 37.5384 16 37.5479C19.6261 37.5384 19.2978 26.9998 21.561 26.9998C25.4404 26.9998 28 39.6903 28 43.714C28 47.7378 25.4404 50.9998 21.561 50.9998C19.7073 50.9998 17.8537 49.714 16 49.714C14.1463 49.714 12.2927 50.9998 10.439 50.9998Z" fill="#5686E5"/>
<path fill-rule="evenodd" clip-rule="evenodd" d="M90.439 50.9998C86.5596 50.9998 84 47.7378 84 43.714C84 39.6903 86.5596 26.9998 90.439 26.9998C92.7022 26.9998 92.9592 37.5384 96 37.5479C99.6261 37.5384 99.2978 26.9998 101.561 26.9998C105.44 26.9998 108 39.6903 108 43.714C108 47.7378 105.44 50.9998 101.561 50.9998C99.7073 50.9998 97.8537 49.714 96 49.714C94.1463 49.714 92.2927 50.9998 90.439 50.9998Z" fill="#5686E5"/>
<mask id="path-5-inside-1_204_626" fill="white">
<path d="M112 48.9998H111.998C111.946 50.4277 110.5 51.8401 107.737 53.1599C104.923 54.5042 100.798 55.7258 95.5977 56.7546C90.3977 57.7834 84.2246 58.6002 77.4307 59.157C70.6364 59.7138 63.354 59.9998 56 59.9998C48.646 59.9998 41.3636 59.7138 34.5693 59.157C27.7754 58.6002 21.6023 57.7834 16.4023 56.7546C11.2023 55.7258 7.07696 54.5042 4.2627 53.1599C1.49979 51.8401 0.0536774 50.4277 0.00195312 48.9998H0V37.9998H112V48.9998Z"/>
</mask>
<path d="M112 48.9998H111.998C111.946 50.4277 110.5 51.8401 107.737 53.1599C104.923 54.5042 100.798 55.7258 95.5977 56.7546C90.3977 57.7834 84.2246 58.6002 77.4307 59.157C70.6364 59.7138 63.354 59.9998 56 59.9998C48.646 59.9998 41.3636 59.7138 34.5693 59.157C27.7754 58.6002 21.6023 57.7834 16.4023 56.7546C11.2023 55.7258 7.07696 54.5042 4.2627 53.1599C1.49979 51.8401 0.0536774 50.4277 0.00195312 48.9998H0V37.9998H112V48.9998Z" fill="#38BF8E" fill-opacity="0.3"/>
<path d="M112 48.9998V51.1998H114.2V48.9998H112ZM111.998 48.9998V46.7998H109.876L109.799 48.9201L111.998 48.9998ZM107.737 53.1599L108.686 55.1451L108.686 55.1451L107.737 53.1599ZM95.5977 56.7546L96.0246 58.9128L96.0247 58.9128L95.5977 56.7546ZM77.4307 59.157L77.6104 61.3496L77.4307 59.157ZM56 59.9998V62.1998V59.9998ZM34.5693 59.157L34.3896 61.3496L34.3896 61.3496L34.5693 59.157ZM16.4023 56.7546L15.9753 58.9128H15.9754L16.4023 56.7546ZM4.2627 53.1599L3.31445 55.1451L3.31447 55.1451L4.2627 53.1599ZM0.00195312 48.9998L2.20051 48.9201L2.12371 46.7998H0.00195312V48.9998ZM0 48.9998H-2.2V51.1998H0V48.9998ZM0 37.9998V35.7998H-2.2V37.9998H0ZM112 37.9998H114.2V35.7998H112V37.9998ZM112 48.9998V46.7998H111.998V48.9998V51.1998H112V48.9998ZM111.998 48.9998L109.799 48.9201C109.801 48.8752 109.821 49.0838 109.347 49.5464C108.872 50.0106 108.055 50.5701 106.789 51.1748L107.737 53.1599L108.686 55.1451C110.183 54.4299 111.47 53.6233 112.421 52.6944C113.374 51.7639 114.143 50.5523 114.197 49.0794L111.998 48.9998ZM107.737 53.1599L106.789 51.1748C104.216 52.4037 100.297 53.5822 95.1707 54.5965L95.5977 56.7546L96.0247 58.9128C101.298 57.8694 105.63 56.6047 108.686 55.1451L107.737 53.1599ZM95.5977 56.7546L95.1707 54.5965C90.0715 55.6053 83.9839 56.4125 77.251 56.9643L77.4307 59.157L77.6104 61.3496C84.4654 60.7878 90.7239 59.9615 96.0246 58.9128L95.5977 56.7546ZM77.4307 59.157L77.251 56.9643C70.5211 57.5159 63.2988 57.7998 56 57.7998V59.9998V62.1998C63.4092 62.1998 70.7518 61.9117 77.6104 61.3496L77.4307 59.157ZM56 59.9998V57.7998C48.7012 57.7998 41.4789 57.5159 34.749 56.9643L34.5693 59.157L34.3896 61.3496C41.2482 61.9117 48.5908 62.1998 56 62.1998V59.9998ZM34.5693 59.157L34.749 56.9643C28.0161 56.4125 21.9285 55.6053 16.8293 54.5965L16.4023 56.7546L15.9754 58.9128C21.2761 59.9615 27.5346 60.7878 34.3896 61.3496L34.5693 59.157ZM16.4023 56.7546L16.8293 54.5965C11.7028 53.5822 7.78371 52.4037 5.21092 51.1748L4.2627 53.1599L3.31447 55.1451C6.37022 56.6047 10.7017 57.8694 15.9753 58.9128L16.4023 56.7546ZM4.2627 53.1599L5.21095 51.1748C3.9452 50.5702 3.1281 50.0106 2.65264 49.5464C2.17885 49.0837 2.19888 48.8752 2.20051 48.9201L0.00195312 48.9998L-2.1966 49.0794C-2.14325 50.5523 -1.3743 51.7639 -0.421379 52.6944C0.529876 53.6233 1.81728 54.4299 3.31445 55.1451L4.2627 53.1599ZM0.00195312 48.9998V46.7998H0V48.9998V51.1998H0.00195312V48.9998ZM0 48.9998H2.2V37.9998H0H-2.2V48.9998H0ZM0 37.9998V40.1998H112V37.9998V35.7998H0V37.9998ZM112 37.9998H109.8V48.9998H112H114.2V37.9998H112Z" fill="#38BF8E" mask="url(#path-5-inside-1_204_626)"/>
</svg>
