<svg width="70" height="71" viewBox="0 0 70 71" fill="none" xmlns="http://www.w3.org/2000/svg">
<g clip-path="url(#clip0_211_837)">
<path fill-rule="evenodd" clip-rule="evenodd" d="M16.9633 10.8335C7.34554 10.8335 1 18.9204 1 28.896C1 38.8716 7.34554 70.3335 16.9633 70.3335C22.574 70.3335 23.2113 44.2064 30.7498 44.1828C39.7396 44.2064 38.9257 70.3335 44.5363 70.3335C54.1541 70.3335 60.4997 38.8716 60.4997 28.896C60.4997 18.9204 54.1541 10.8335 44.5363 10.8335C39.9408 10.8335 35.3453 14.021 30.7498 14.021C26.1543 14.021 21.5588 10.8335 16.9633 10.8335Z" fill="#5686E5"/>
<path d="M55 2.3335C56.048 2.3335 57.0834 2.66468 59.7891 3.58154L60.7441 3.90576C63.2679 4.76101 65.0989 5.38197 66.3818 5.89795C67.0219 6.15538 67.4769 6.36734 67.79 6.54736C68.1251 6.74003 68.1772 6.82862 68.1475 6.78662C68.1214 6.74985 68.1878 6.83367 68.2617 7.21338C68.331 7.56933 68.386 8.06946 68.4238 8.75732C68.4996 10.1359 68.5 12.0642 68.5 14.7212V17.3188C68.5 25.6871 62.1852 29.8261 57.9072 31.6763C57.2847 31.9454 56.9444 32.0888 56.5684 32.1841C56.2135 32.274 55.7707 32.3335 55 32.3335C54.229 32.3335 53.7856 32.274 53.4307 32.1841C53.0548 32.0888 52.715 31.9453 52.0928 31.6763H52.0918C47.8138 29.8259 41.5 25.6866 41.5 17.3188V14.7212C41.5 12.0642 41.5004 10.1359 41.5762 8.75732C41.614 8.06946 41.669 7.56932 41.7383 7.21338C41.8122 6.83374 41.8786 6.74989 41.8525 6.78662C41.8228 6.82861 41.8749 6.74001 42.21 6.54736C42.5231 6.36734 42.9781 6.15537 43.6182 5.89795C44.9011 5.38197 46.7321 4.76101 49.2559 3.90576L50.2109 3.58154C52.9165 2.66468 53.952 2.3335 55 2.3335Z" fill="#38BF8E" stroke="#F7F3ED" stroke-width="3"/>
</g>
<defs>
<clipPath id="clip0_211_837">
<rect width="70" height="70" fill="white" transform="translate(0 0.833496)"/>
</clipPath>
</defs>
</svg>
