<svg width="100" height="71" viewBox="0 0 100 71" fill="none" xmlns="http://www.w3.org/2000/svg">
<g clip-path="url(#clip0_212_891)">
<path fill-rule="evenodd" clip-rule="evenodd" d="M35.9633 10.8335C26.3455 10.8335 20 18.9204 20 28.896C20 38.8716 26.3455 70.3335 35.9633 70.3335C41.574 70.3335 42.2113 44.2064 49.7498 44.1828C58.7396 44.2064 57.9257 70.3335 63.5363 70.3335C73.1541 70.3335 79.4997 38.8716 79.4997 28.896C79.4997 18.9204 73.1541 10.8335 63.5363 10.8335C58.9408 10.8335 54.3453 14.021 49.7498 14.021C45.1543 14.021 40.5588 10.8335 35.9633 10.8335Z" fill="#5686E5"/>
<path fill-rule="evenodd" clip-rule="evenodd" d="M-24.0367 10.8335C-33.6545 10.8335 -40 18.9204 -40 28.896C-40 38.8716 -33.6545 70.3335 -24.0367 70.3335C-18.426 70.3335 -17.7887 44.2064 -10.2502 44.1828C-1.26043 44.2064 -2.07433 70.3335 3.53635 70.3335C13.1541 70.3335 19.4997 38.8716 19.4997 28.896C19.4997 18.9204 13.1541 10.8335 3.53635 10.8335C-1.05916 10.8335 -5.65466 14.021 -10.2502 14.021C-14.8457 14.021 -19.4412 10.8335 -24.0367 10.8335Z" fill="#5686E5"/>
<path fill-rule="evenodd" clip-rule="evenodd" d="M95.9633 10.8335C86.3455 10.8335 80 18.9204 80 28.896C80 38.8716 86.3455 70.3335 95.9633 70.3335C101.574 70.3335 102.211 44.2064 109.75 44.1828C118.74 44.2064 117.926 70.3335 123.536 70.3335C133.154 70.3335 139.5 38.8716 139.5 28.896C139.5 18.9204 133.154 10.8335 123.536 10.8335C118.941 10.8335 114.345 14.021 109.75 14.021C105.154 14.021 100.559 10.8335 95.9633 10.8335Z" fill="#5686E5"/>
<path d="M49.5 -54.6665C105.894 -54.6665 156.904 -49.5236 193.774 -41.23C212.221 -37.0805 227.047 -32.1601 237.225 -26.7476C242.315 -24.0406 246.17 -21.2475 248.735 -18.4272C251.293 -15.6155 252.5 -12.8593 252.5 -10.1665C252.5 -7.47373 251.293 -4.71748 248.735 -1.90576C246.17 0.914488 242.315 3.70756 237.225 6.41455C227.047 11.827 212.221 16.7475 193.774 20.897C156.904 29.1906 105.894 34.3335 49.5 34.3335C-6.89437 34.3335 -57.904 29.1906 -94.7744 20.897C-113.221 16.7475 -128.047 11.827 -138.225 6.41455C-143.315 3.70756 -147.17 0.914488 -149.735 -1.90576C-152.293 -4.71748 -153.5 -7.47373 -153.5 -10.1665C-153.5 -12.8593 -152.293 -15.6155 -149.735 -18.4272C-147.17 -21.2475 -143.315 -24.0406 -138.225 -26.7476C-128.047 -32.1601 -113.221 -37.0805 -94.7744 -41.23C-57.904 -49.5236 -6.89437 -54.6665 49.5 -54.6665Z" stroke="#38BF8E" stroke-width="3"/>
<rect x="35.5" y="27.3335" width="28" height="11" rx="1.5" fill="#38BF8E" stroke="#F7F3ED"/>
</g>
<defs>
<clipPath id="clip0_212_891">
<rect width="100" height="70" fill="white" transform="translate(0 0.833496)"/>
</clipPath>
</defs>
</svg>
