<svg width="70" height="71" viewBox="0 0 70 71" fill="none" xmlns="http://www.w3.org/2000/svg">
<g clip-path="url(#clip0_211_799)">
<path fill-rule="evenodd" clip-rule="evenodd" d="M16.9633 10.8335C7.34554 10.8335 1 18.9204 1 28.896C1 38.8716 7.34554 70.3335 16.9633 70.3335C22.574 70.3335 23.2113 44.2064 30.7498 44.1828C39.7396 44.2064 38.9257 70.3335 44.5363 70.3335C54.1541 70.3335 60.4997 38.8716 60.4997 28.896C60.4997 18.9204 54.1541 10.8335 44.5363 10.8335C39.9408 10.8335 35.3453 14.021 30.7498 14.021C26.1543 14.021 21.5588 10.8335 16.9633 10.8335Z" fill="#5686E5"/>
<g clip-path="url(#clip1_211_799)">
<path d="M59.4893 23.2632C59.935 24.6506 60.2392 26.1219 60.3896 27.6528L59.3955 27.7505C59.4645 28.4525 59.5 29.1688 59.5 29.896C59.5 30.5467 59.4716 31.3014 59.415 32.145L60.4102 32.2104C60.3192 33.5678 60.1572 35.1307 59.9287 36.8345L58.9404 36.7026C58.7488 38.1317 58.5096 39.6625 58.2246 41.2554L59.2051 41.4312C58.9403 42.9111 58.6375 44.443 58.2969 45.9956L57.3223 45.7827C56.9964 47.2679 56.6373 48.7718 56.2451 50.2661L57.209 50.519C56.8131 52.0275 56.3856 53.5275 55.9258 54.9907L54.9736 54.6919C54.5034 56.1879 54.0007 57.6423 53.4688 59.0239L54.4014 59.3823C53.8179 60.8979 53.1978 62.3318 52.543 63.645L51.6484 63.1997C50.9145 64.6716 50.1464 65.9678 49.3506 67.0396L50.1514 67.6333C49.0869 69.0669 47.9565 70.1505 46.7637 70.7632L46.3076 69.8755C45.7085 70.1832 45.1205 70.3335 44.5361 70.3335C44.2486 70.3334 43.8464 70.1587 43.333 69.3667L42.4932 69.9097C41.7646 68.7853 41.1665 67.0741 40.6064 65.0659L41.5684 64.7983C41.1416 63.2681 40.738 61.5603 40.3086 59.7788L39.3359 60.0132H39.334C38.9288 58.332 38.5072 56.6115 38.0342 54.9653H38.0361L38.9971 54.689C38.4826 52.8985 37.8992 51.1624 37.1982 49.6421L36.29 50.061H36.2881C35.4488 48.2411 34.4497 46.7754 33.2012 45.9419L33.7568 45.1108C32.878 44.524 31.8763 44.1862 30.7529 44.1831H30.7471C29.5944 44.1867 28.598 44.6539 27.7588 45.3833L28.415 46.1382L28.417 46.1401C27.3537 47.0642 26.4565 48.5949 25.666 50.4614H25.665L24.7451 50.0718C24.1045 51.5846 23.5368 53.2936 23.0117 55.0503L23.9697 55.3374H23.9707C23.4835 56.9675 23.0246 58.6608 22.5732 60.3101L21.6094 60.0474C21.1315 61.7932 20.6663 63.4656 20.1807 64.9556L21.1309 65.2651C20.4919 67.2254 19.8139 68.8869 19.0352 69.9731L18.2227 69.3921C17.6778 70.1518 17.2582 70.3335 16.9629 70.3335C16.3787 70.3334 15.7912 70.1831 15.1924 69.8755L14.7354 70.7632C13.5427 70.1504 12.412 69.0669 11.3477 67.6333L12.1494 67.0396C11.3536 65.9677 10.5845 64.6717 9.85059 63.1997L8.95605 63.645C8.30127 62.3318 7.68114 60.8979 7.09766 59.3823L8.03027 59.0239C7.49835 57.6423 6.99655 56.1879 6.52637 54.6919L5.57227 54.9907C5.11245 53.5276 4.68587 52.0274 4.29004 50.519L5.25488 50.2661C4.86271 48.7717 4.50263 47.268 4.17676 45.7827L3.20215 45.9956C2.86152 44.443 2.55877 42.9111 2.29395 41.4312L3.27539 41.2554C2.99037 39.6625 2.75122 38.1317 2.55957 36.7026L1.57031 36.8345C1.34184 35.1307 1.17889 33.5678 1.08789 32.2104L2.08496 32.145C2.02838 31.3014 2 30.5467 2 29.896C2 29.1688 2.03552 28.4525 2.10449 27.7505L1.10938 27.6528L1.1084 27.6519C1.2589 26.1211 1.5631 24.6495 2.00879 23.2622L2.00977 23.2632L2.96191 23.5688C3.40745 22.1819 3.99961 20.8886 4.72363 19.7153L3.87305 19.1899C4.61297 17.9909 5.48521 16.9054 6.47656 15.9585L6.7168 15.7339L7.3916 16.4712C8.42209 15.5283 9.58184 14.7443 10.8555 14.1489L10.4316 13.2437C11.7515 12.6266 13.1872 12.1978 14.7236 11.9858L14.8594 12.9761C15.5379 12.8825 16.2398 12.8335 16.9629 12.8335C18.0166 12.8335 19.0955 13.0202 20.2158 13.3149L20.4697 12.3472C22.7272 12.9411 24.9848 13.9123 27.2422 14.5063V14.5073L26.9883 15.4741C28.206 15.7945 29.4656 16.021 30.75 16.021C32.0344 16.021 33.2939 15.7946 34.5117 15.4741L34.2568 14.5073L34.2559 14.5063C36.5136 13.9124 38.7716 12.9412 41.0293 12.3472L41.2832 13.3149C42.4035 13.0201 43.4824 12.8335 44.5361 12.8335C45.2594 12.8335 45.961 12.8825 46.6396 12.9761L46.7754 11.9858C48.3115 12.1977 49.7467 12.6269 51.0664 13.2437L50.6445 14.1489C51.9182 14.7443 53.0779 15.5283 54.1084 16.4712L54.7822 15.7339C55.8734 16.7322 56.8259 17.8952 57.625 19.1899L56.7764 19.7153C57.5004 20.8886 58.0926 22.182 58.5381 23.5688L59.4893 23.2632Z" fill="white" stroke="#5686E5" stroke-width="2" stroke-dasharray="5 5"/>
<path d="M59.4893 23.2632C59.935 24.6506 60.2392 26.1219 60.3896 27.6528L59.3955 27.7505C59.4645 28.4525 59.5 29.1688 59.5 29.896C59.5 30.5467 59.4716 31.3014 59.415 32.145L60.4102 32.2104C60.3192 33.5678 60.1572 35.1307 59.9287 36.8345L58.9404 36.7026C58.7488 38.1317 58.5096 39.6625 58.2246 41.2554L59.2051 41.4312C58.9403 42.9111 58.6375 44.443 58.2969 45.9956L57.3223 45.7827C56.9964 47.2679 56.6373 48.7718 56.2451 50.2661L57.209 50.519C56.8131 52.0275 56.3856 53.5275 55.9258 54.9907L54.9736 54.6919C54.5034 56.1879 54.0007 57.6423 53.4688 59.0239L54.4014 59.3823C53.8179 60.8979 53.1978 62.3318 52.543 63.645L51.6484 63.1997C50.9145 64.6716 50.1464 65.9678 49.3506 67.0396L50.1514 67.6333C49.0869 69.0669 47.9565 70.1505 46.7637 70.7632L46.3076 69.8755C45.7085 70.1832 45.1205 70.3335 44.5361 70.3335C44.2486 70.3334 43.8464 70.1587 43.333 69.3667L42.4932 69.9097C41.7646 68.7853 41.1665 67.0741 40.6064 65.0659L41.5684 64.7983C41.1416 63.2681 40.738 61.5603 40.3086 59.7788L39.3359 60.0132H39.334C38.9288 58.332 38.5072 56.6115 38.0342 54.9653H38.0361L38.9971 54.689C38.4826 52.8985 37.8992 51.1624 37.1982 49.6421L36.29 50.061H36.2881C35.4488 48.2411 34.4497 46.7754 33.2012 45.9419L33.7568 45.1108C32.878 44.524 31.8763 44.1862 30.7529 44.1831H30.7471C29.5944 44.1867 28.598 44.6539 27.7588 45.3833L28.415 46.1382L28.417 46.1401C27.3537 47.0642 26.4565 48.5949 25.666 50.4614H25.665L24.7451 50.0718C24.1045 51.5846 23.5368 53.2936 23.0117 55.0503L23.9697 55.3374H23.9707C23.4835 56.9675 23.0246 58.6608 22.5732 60.3101L21.6094 60.0474C21.1315 61.7932 20.6663 63.4656 20.1807 64.9556L21.1309 65.2651C20.4919 67.2254 19.8139 68.8869 19.0352 69.9731L18.2227 69.3921C17.6778 70.1518 17.2582 70.3335 16.9629 70.3335C16.3787 70.3334 15.7912 70.1831 15.1924 69.8755L14.7354 70.7632C13.5427 70.1504 12.412 69.0669 11.3477 67.6333L12.1494 67.0396C11.3536 65.9677 10.5845 64.6717 9.85059 63.1997L8.95605 63.645C8.30127 62.3318 7.68114 60.8979 7.09766 59.3823L8.03027 59.0239C7.49835 57.6423 6.99655 56.1879 6.52637 54.6919L5.57227 54.9907C5.11245 53.5276 4.68587 52.0274 4.29004 50.519L5.25488 50.2661C4.86271 48.7717 4.50263 47.268 4.17676 45.7827L3.20215 45.9956C2.86152 44.443 2.55877 42.9111 2.29395 41.4312L3.27539 41.2554C2.99037 39.6625 2.75122 38.1317 2.55957 36.7026L1.57031 36.8345C1.34184 35.1307 1.17889 33.5678 1.08789 32.2104L2.08496 32.145C2.02838 31.3014 2 30.5467 2 29.896C2 29.1688 2.03552 28.4525 2.10449 27.7505L1.10938 27.6528L1.1084 27.6519C1.2589 26.1211 1.5631 24.6495 2.00879 23.2622L2.00977 23.2632L2.96191 23.5688C3.40745 22.1819 3.99961 20.8886 4.72363 19.7153L3.87305 19.1899C4.61297 17.9909 5.48521 16.9054 6.47656 15.9585L6.7168 15.7339L7.3916 16.4712C8.42209 15.5283 9.58184 14.7443 10.8555 14.1489L10.4316 13.2437C11.7515 12.6266 13.1872 12.1978 14.7236 11.9858L14.8594 12.9761C15.5379 12.8825 16.2398 12.8335 16.9629 12.8335C18.0166 12.8335 19.0955 13.0202 20.2158 13.3149L20.4697 12.3472C22.7272 12.9411 24.9848 13.9123 27.2422 14.5063V14.5073L26.9883 15.4741C28.206 15.7945 29.4656 16.021 30.75 16.021C32.0344 16.021 33.2939 15.7946 34.5117 15.4741L34.2568 14.5073L34.2559 14.5063C36.5136 13.9124 38.7716 12.9412 41.0293 12.3472L41.2832 13.3149C42.4035 13.0201 43.4824 12.8335 44.5361 12.8335C45.2594 12.8335 45.961 12.8825 46.6396 12.9761L46.7754 11.9858C48.3115 12.1977 49.7467 12.6269 51.0664 13.2437L50.6445 14.1489C51.9182 14.7443 53.0779 15.5283 54.1084 16.4712L54.7822 15.7339C55.8734 16.7322 56.8259 17.8952 57.625 19.1899L56.7764 19.7153C57.5004 20.8886 58.0926 22.182 58.5381 23.5688L59.4893 23.2632Z" fill="#38BF8E" fill-opacity="0.5" stroke="#5686E5" stroke-width="2" stroke-dasharray="5 5"/>
</g>
</g>
<defs>
<clipPath id="clip0_211_799">
<rect width="70" height="70" fill="white" transform="translate(0 0.833496)"/>
</clipPath>
<clipPath id="clip1_211_799">
<rect width="59" height="35" fill="white" transform="translate(1 36.8335)"/>
</clipPath>
</defs>
</svg>
