<svg width="70" height="71" viewBox="0 0 70 71" fill="none" xmlns="http://www.w3.org/2000/svg">
<g clip-path="url(#clip0_204_418)">
<path fill-rule="evenodd" clip-rule="evenodd" d="M16.9633 11C7.34554 11 1 19.0869 1 29.0625C1 39.0381 7.34554 70.5 16.9633 70.5C22.574 70.5 23.2113 44.3729 30.7498 44.3493C39.7396 44.3729 38.9257 70.5 44.5363 70.5C54.1541 70.5 60.4997 39.0381 60.4997 29.0625C60.4997 19.0869 54.1541 11 44.5363 11C39.9408 11 35.3453 14.1875 30.7498 14.1875C26.1543 14.1875 21.5588 11 16.9633 11Z" fill="#5686E5"/>
<path d="M65.4502 14.9869C65.4529 15.4086 65.3248 15.8208 65.0836 16.1668C64.8424 16.5128 64.4999 16.7755 64.1033 16.9188L57.3915 19.3916L54.9187 26.1033C54.7731 26.4985 54.5098 26.8395 54.1644 27.0803C53.8189 27.3212 53.408 27.4503 52.9868 27.4503C52.5657 27.4503 52.1547 27.3212 51.8093 27.0803C51.4638 26.8395 51.2005 26.4985 51.0549 26.1033L48.5822 19.3916L41.8704 16.9188C41.4753 16.7732 41.1343 16.5099 40.8934 16.1645C40.6526 15.819 40.5234 15.408 40.5234 14.9869C40.5234 14.5658 40.6526 14.1548 40.8934 13.8093C41.1343 13.4639 41.4753 13.2006 41.8704 13.055L48.5822 10.5822L51.0549 3.87046C51.2005 3.47532 51.4638 3.13433 51.8093 2.89348C52.1547 2.65263 52.5657 2.5235 52.9868 2.5235C53.408 2.5235 53.8189 2.65263 54.1644 2.89348C54.5098 3.13433 54.7731 3.47532 54.9187 3.87046L57.3915 10.5822L64.1033 13.055C64.4999 13.1983 64.8424 13.461 65.0836 13.807C65.3248 14.1529 65.4529 14.5652 65.4502 14.9869Z" fill="#38BF8E"/>
<g clip-path="url(#clip1_204_418)">
<path d="M12.2802 8.49391C12.2814 8.68972 12.222 8.88111 12.11 9.04173C11.998 9.20236 11.839 9.32433 11.6548 9.39087L8.53863 10.5389L7.39056 13.6551C7.32295 13.8386 7.20072 13.9969 7.04033 14.1087C6.87995 14.2205 6.68913 14.2805 6.49361 14.2805C6.29809 14.2805 6.10727 14.2205 5.94689 14.1087C5.7865 13.9969 5.66426 13.8386 5.59665 13.6551L4.44859 10.5389L1.3324 9.39087C1.14895 9.32326 0.990632 9.20102 0.878808 9.04064C0.766985 8.88025 0.707031 8.68943 0.707031 8.49391C0.707031 8.29839 0.766985 8.10758 0.878808 7.94719C0.990632 7.78681 1.14895 7.66457 1.3324 7.59696L4.44859 6.4489L5.59665 3.33271C5.66426 3.14925 5.7865 2.99094 5.94689 2.87911C6.10727 2.76729 6.29809 2.70734 6.49361 2.70734C6.68913 2.70734 6.87995 2.76729 7.04033 2.87911C7.20072 2.99094 7.32295 3.14925 7.39056 3.33271L8.53863 6.4489L11.6548 7.59696C11.839 7.6635 11.998 7.78547 12.11 7.9461C12.222 8.10672 12.2814 8.29811 12.2802 8.49391Z" fill="#38BF8E"/>
</g>
</g>
<defs>
<clipPath id="clip0_204_418">
<rect width="70" height="70" fill="white" transform="translate(0 0.416748)"/>
</clipPath>
<clipPath id="clip1_204_418">
<rect width="13" height="13" fill="white" transform="translate(0 2)"/>
</clipPath>
</defs>
</svg>
