<svg width="70" height="71" viewBox="0 0 70 71" fill="none" xmlns="http://www.w3.org/2000/svg">
<g clip-path="url(#clip0_210_677)">
<path fill-rule="evenodd" clip-rule="evenodd" d="M20.9633 10.8335C11.3455 10.8335 5 18.9204 5 28.896C5 38.8716 11.3455 70.3335 20.9633 70.3335C26.574 70.3335 27.2113 44.2064 34.7498 44.1828C43.7396 44.2064 42.9257 70.3335 48.5363 70.3335C58.1541 70.3335 64.4997 38.8716 64.4997 28.896C64.4997 18.9204 58.1541 10.8335 48.5363 10.8335C43.9408 10.8335 39.3453 14.021 34.7498 14.021C30.1543 14.021 25.5588 10.8335 20.9633 10.8335Z" fill="#5686E5"/>
<g clip-path="url(#clip1_210_677)">
<path d="M50.0244 6.8335C60.1591 6.83351 66.9998 15.3369 67 26.1724C67 31.6633 65.2372 43.228 62.1172 53.4233C60.5579 58.5185 58.6799 63.2024 56.5547 66.5913C54.3847 70.0517 52.1675 71.8335 50.0244 71.8335C49.6798 71.8335 49.2648 71.6487 48.7607 70.9722C48.2534 70.2912 47.7706 69.2567 47.3008 67.9077C46.3602 65.207 45.5852 61.6113 44.6592 57.8794C43.7477 54.2061 42.6931 50.4177 41.1953 47.5376C39.7118 44.685 37.6143 42.3946 34.5029 42.3862H34.4971C33.1163 42.3906 31.9419 43.0014 30.9639 43.936C29.9998 44.8574 29.1891 46.1257 28.4844 47.5571C27.0765 50.4168 25.9717 54.1871 24.96 57.854C23.9345 61.5705 23.0054 65.1743 21.9424 67.8687C21.4107 69.2163 20.8746 70.2572 20.3262 70.9458C19.7765 71.6359 19.3316 71.8335 18.9756 71.8335C16.8325 71.8335 14.6153 70.0517 12.4453 66.5913C10.3201 63.2024 8.44207 58.5185 6.88281 53.4233C3.7628 43.228 2 31.6633 2 26.1724C2.00018 15.3369 8.84092 6.83351 18.9756 6.8335C21.3639 6.8335 23.7874 7.66317 26.4102 8.57275C28.9622 9.45781 31.7136 10.4224 34.5 10.4224C37.2864 10.4224 40.0378 9.45781 42.5898 8.57275C45.2126 7.66317 47.6361 6.8335 50.0244 6.8335Z" fill="#38BF8E" fill-opacity="0.5" stroke="#38BF8E" stroke-width="2"/>
<rect x="3" y="34.8335" width="63" height="2" fill="#38BF8E"/>
</g>
</g>
<defs>
<clipPath id="clip0_210_677">
<rect width="70" height="70" fill="white" transform="translate(0 0.833496)"/>
</clipPath>
<clipPath id="clip1_210_677">
<rect width="67" height="31" fill="white" transform="translate(1 5.8335)"/>
</clipPath>
</defs>
</svg>
